<svg xmlns="http://www.w3.org/2000/svg" width="375" height="588" viewBox="0 0 375 588" fill="none">
<rect width="26.4618" height="4.7339" transform="matrix(0.757375 0.65298 0.65298 -0.757375 127.184 47.5854)" fill="#6070FF"/>
<ellipse cx="132.304" cy="59.211" rx="5.5" ry="5" transform="rotate(52.9708 132.304 59.211)" fill="#CBCDFF"/>
<rect x="191.824" y="549" width="68.0631" height="12.1762" transform="rotate(23.34 191.824 549)" fill="#EBEBFF"/>
<circle cx="247" cy="563.096" r="10" fill="#6070FF"/>
<path d="M334.907 465.499C336.426 463.69 337.498 461.547 338.036 459.246C338.574 456.945 338.562 454.549 338.001 452.254C337.441 449.958 336.348 447.826 334.81 446.032C333.273 444.237 331.335 442.829 329.152 441.923C326.97 441.017 324.604 440.637 322.248 440.815C319.891 440.993 317.61 441.724 315.588 442.947C313.567 444.171 311.861 445.853 310.611 447.859C309.36 449.864 308.6 452.135 308.39 454.489L314.841 455.063C314.96 453.722 315.393 452.428 316.106 451.285C316.818 450.143 317.79 449.185 318.941 448.487C320.093 447.79 321.393 447.374 322.735 447.273C324.078 447.172 325.425 447.388 326.669 447.904C327.912 448.42 329.016 449.222 329.892 450.245C330.768 451.267 331.391 452.481 331.71 453.789C332.029 455.097 332.036 456.462 331.73 457.773C331.424 459.084 330.813 460.304 329.947 461.335L334.907 465.499Z" fill="#EBEBFF"/>
<path d="M318.497 429C318.278 432.194 319.337 435.344 321.441 437.757C323.544 440.17 326.521 441.649 329.715 441.868C332.909 442.086 336.059 441.027 338.472 438.924C340.885 436.82 342.364 433.844 342.582 430.65L318.497 429Z" fill="#6070FF"/>
<rect x="-34" y="37.4871" width="51.9898" height="9.30073" transform="rotate(-46.1415 -34 37.4871)" fill="#EBEBFF"/>
<path d="M-11.8093 24.642C-13.8141 29.3378 -13.8715 34.6377 -11.9688 39.3758C-10.066 44.1139 -6.359 47.902 -1.66322 49.9069C3.03256 51.9118 8.33245 51.9692 13.0705 50.0664C17.8086 48.1636 21.5968 44.4566 23.6016 39.7609L-11.8093 24.642Z" fill="#6070FF"/>
<circle cx="221.5" cy="13.5" r="7" fill="white" stroke="#CBCDFF"/>
<circle cx="303.5" cy="216.5" r="5" fill="white" stroke="#CBCDFF"/>
<circle cx="60.5" cy="548.5" r="7" fill="white" stroke="#CBCDFF"/>
<path d="M421.241 74.9701C417.195 67.7876 411.514 61.659 404.659 57.0803C397.803 52.5017 389.966 49.6018 381.782 48.6154C373.597 47.6291 365.295 48.584 357.548 51.4028C349.802 54.2216 342.827 58.8252 337.191 64.8407C331.554 70.8562 327.413 78.1145 325.103 86.0281C322.793 93.9416 322.379 102.288 323.895 110.391C325.411 118.494 328.813 126.127 333.828 132.67C338.842 139.214 345.326 144.485 352.756 148.056L362.543 127.695C358.31 125.661 354.616 122.658 351.759 118.93C348.903 115.202 346.964 110.854 346.101 106.238C345.237 101.621 345.473 96.8662 346.789 92.3579C348.105 87.8496 350.464 83.7145 353.675 80.2874C356.886 76.8604 360.86 74.2378 365.273 72.6319C369.686 71.026 374.416 70.482 379.079 71.044C383.741 71.6059 388.206 73.258 392.112 75.8664C396.017 78.4748 399.254 81.9663 401.559 86.0582L421.241 74.9701Z" fill="#6070FF"/>
<rect x="294" y="61.79" width="95.5804" height="22.021" transform="rotate(-30 294 61.79)" fill="#EBEBFF"/>
</svg>
