<svg id="visual" viewBox="0 0 960 540" width="960" height="540"><path d="M0 254L22.8 267.3C45.7 280.7 91.3 307.3 137 316.5C182.7 325.7 228.3 317.3 274 305.2C319.7 293 365.3 277 411.2 285C457 293 503 325 548.8 333.5C594.7 342 640.3 327 686 320.5C731.7 314 777.3 316 823 304.5C868.7 293 914.3 268 937.2 255.5L960 243L960 541L937.2 541C914.3 541 868.7 541 823 541C777.3 541 731.7 541 686 541C640.3 541 594.7 541 548.8 541C503 541 457 541 411.2 541C365.3 541 319.7 541 274 541C228.3 541 182.7 541 137 541C91.3 541 45.7 541 22.8 541L0 541Z" fill="#c62368" style="transition: all 0.4s cubic-bezier(0.16, 1, 0.3, 1) 0s;"></path><path d="M0 338L22.8 333.8C45.7 329.7 91.3 321.3 137 322C182.7 322.7 228.3 332.3 274 345.5C319.7 358.7 365.3 375.3 411.2 376C457 376.7 503 361.3 548.8 349.8C594.7 338.3 640.3 330.7 686 328.3C731.7 326 777.3 329 823 332.2C868.7 335.3 914.3 338.7 937.2 340.3L960 342L960 541L937.2 541C914.3 541 868.7 541 823 541C777.3 541 731.7 541 686 541C640.3 541 594.7 541 548.8 541C503 541 457 541 411.2 541C365.3 541 319.7 541 274 541C228.3 541 182.7 541 137 541C91.3 541 45.7 541 22.8 541L0 541Z" fill="#ea1369" style="transition: all 0.4s cubic-bezier(0.16, 1, 0.3, 1) 0s;"></path><path d="M0 387L22.8 388.7C45.7 390.3 91.3 393.7 137 395.7C182.7 397.7 228.3 398.3 274 390.8C319.7 383.3 365.3 367.7 411.2 360.7C457 353.7 503 355.3 548.8 353.5C594.7 351.7 640.3 346.3 686 352.8C731.7 359.3 777.3 377.7 823 376.2C868.7 374.7 914.3 353.3 937.2 342.7L960 332L960 541L937.2 541C914.3 541 868.7 541 823 541C777.3 541 731.7 541 686 541C640.3 541 594.7 541 548.8 541C503 541 457 541 411.2 541C365.3 541 319.7 541 274 541C228.3 541 182.7 541 137 541C91.3 541 45.7 541 22.8 541L0 541Z" fill="#ff0066" style="transition: all 0.4s cubic-bezier(0.16, 1, 0.3, 1) 0s;"></path><path d="M0 423L22.8 428C45.7 433 91.3 443 137 439.3C182.7 435.7 228.3 418.3 274 407.8C319.7 397.3 365.3 393.7 411.2 405C457 416.3 503 442.7 548.8 447.3C594.7 452 640.3 435 686 427.2C731.7 419.3 777.3 420.7 823 417C868.7 413.3 914.3 404.7 937.2 400.3L960 396L960 541L937.2 541C914.3 541 868.7 541 823 541C777.3 541 731.7 541 686 541C640.3 541 594.7 541 548.8 541C503 541 457 541 411.2 541C365.3 541 319.7 541 274 541C228.3 541 182.7 541 137 541C91.3 541 45.7 541 22.8 541L0 541Z" fill="#ea1369" style="transition: all 0.4s cubic-bezier(0.16, 1, 0.3, 1) 0s;"></path><path d="M0 487L22.8 487.5C45.7 488 91.3 489 137 491.3C182.7 493.7 228.3 497.3 274 490.8C319.7 484.3 365.3 467.7 411.2 466C457 464.3 503 477.7 548.8 481.7C594.7 485.7 640.3 480.3 686 481.7C731.7 483 777.3 491 823 497.2C868.7 503.3 914.3 507.7 937.2 509.8L960 512L960 541L937.2 541C914.3 541 868.7 541 823 541C777.3 541 731.7 541 686 541C640.3 541 594.7 541 548.8 541C503 541 457 541 411.2 541C365.3 541 319.7 541 274 541C228.3 541 182.7 541 137 541C91.3 541 45.7 541 22.8 541L0 541Z" fill="#c62368" style="transition: all 0.4s cubic-bezier(0.16, 1, 0.3, 1) 0s;"></path></svg>
