<svg id="visual" viewBox="0 0 900 600" width="900" height="600" xmlns="http://www.w3.org/2000/svg" xmlns:xlink="http://www.w3.org/1999/xlink" version="1.1"><rect x="0" y="0" width="900" height="600" fill="#001220"></rect><path d="M0 434L21.5 430.7C43 427.3 86 420.7 128.8 420.2C171.7 419.7 214.3 425.3 257.2 422.2C300 419 343 407 385.8 401.2C428.7 395.3 471.3 395.7 514.2 399C557 402.3 600 408.7 642.8 409.5C685.7 410.3 728.3 405.7 771.2 398.7C814 391.7 857 382.3 878.5 377.7L900 373L900 601L878.5 601C857 601 814 601 771.2 601C728.3 601 685.7 601 642.8 601C600 601 557 601 514.2 601C471.3 601 428.7 601 385.8 601C343 601 300 601 257.2 601C214.3 601 171.7 601 128.8 601C86 601 43 601 21.5 601L0 601Z" fill="#ff0066"></path><path d="M0 422L21.5 435.5C43 449 86 476 128.8 489.7C171.7 503.3 214.3 503.7 257.2 494.8C300 486 343 468 385.8 469C428.7 470 471.3 490 514.2 499C557 508 600 506 642.8 494.5C685.7 483 728.3 462 771.2 451.5C814 441 857 441 878.5 441L900 441L900 601L878.5 601C857 601 814 601 771.2 601C728.3 601 685.7 601 642.8 601C600 601 557 601 514.2 601C471.3 601 428.7 601 385.8 601C343 601 300 601 257.2 601C214.3 601 171.7 601 128.8 601C86 601 43 601 21.5 601L0 601Z" fill="#e31769"></path><path d="M0 521L21.5 525C43 529 86 537 128.8 536C171.7 535 214.3 525 257.2 527.3C300 529.7 343 544.3 385.8 546.3C428.7 548.3 471.3 537.7 514.2 526C557 514.3 600 501.7 642.8 499.7C685.7 497.7 728.3 506.3 771.2 512.3C814 518.3 857 521.7 878.5 523.3L900 525L900 601L878.5 601C857 601 814 601 771.2 601C728.3 601 685.7 601 642.8 601C600 601 557 601 514.2 601C471.3 601 428.7 601 385.8 601C343 601 300 601 257.2 601C214.3 601 171.7 601 128.8 601C86 601 43 601 21.5 601L0 601Z" fill="#c62368"></path></svg>