
<svg id="visual" viewBox="0 0 960 540" width="960" height="540" xmlns="http://www.w3.org/2000/svg" xmlns:xlink="http://www.w3.org/1999/xlink" version="1.1"><path d="M0 298L22.8 293.3C45.7 288.7 91.3 279.3 137 274.7C182.7 270 228.3 270 274 278.2C319.7 286.3 365.3 302.7 411.2 304.8C457 307 503 295 548.8 277.2C594.7 259.3 640.3 235.7 686 233.8C731.7 232 777.3 252 823 269.5C868.7 287 914.3 302 937.2 309.5L960 317L960 541L937.2 541C914.3 541 868.7 541 823 541C777.3 541 731.7 541 686 541C640.3 541 594.7 541 548.8 541C503 541 457 541 411.2 541C365.3 541 319.7 541 274 541C228.3 541 182.7 541 137 541C91.3 541 45.7 541 22.8 541L0 541Z" fill="#001122"></path><path d="M0 348L22.8 344.7C45.7 341.3 91.3 334.7 137 322C182.7 309.3 228.3 290.7 274 291.7C319.7 292.7 365.3 313.3 411.2 333.5C457 353.7 503 373.3 548.8 380C594.7 386.7 640.3 380.3 686 371C731.7 361.7 777.3 349.3 823 332.5C868.7 315.7 914.3 294.3 937.2 283.7L960 273L960 541L937.2 541C914.3 541 868.7 541 823 541C777.3 541 731.7 541 686 541C640.3 541 594.7 541 548.8 541C503 541 457 541 411.2 541C365.3 541 319.7 541 274 541C228.3 541 182.7 541 137 541C91.3 541 45.7 541 22.8 541L0 541Z" fill="#8f277e"></path><path d="M0 419L22.8 403.5C45.7 388 91.3 357 137 352.8C182.7 348.7 228.3 371.3 274 372.5C319.7 373.7 365.3 353.3 411.2 344.3C457 335.3 503 337.7 548.8 338.7C594.7 339.7 640.3 339.3 686 352.2C731.7 365 777.3 391 823 393.8C868.7 396.7 914.3 376.3 937.2 366.2L960 356L960 541L937.2 541C914.3 541 868.7 541 823 541C777.3 541 731.7 541 686 541C640.3 541 594.7 541 548.8 541C503 541 457 541 411.2 541C365.3 541 319.7 541 274 541C228.3 541 182.7 541 137 541C91.3 541 45.7 541 22.8 541L0 541Z" fill="#ff0066"></path><path d="M0 416L22.8 423.5C45.7 431 91.3 446 137 454.5C182.7 463 228.3 465 274 455.7C319.7 446.3 365.3 425.7 411.2 419C457 412.3 503 419.7 548.8 421C594.7 422.3 640.3 417.7 686 410.8C731.7 404 777.3 395 823 401.5C868.7 408 914.3 430 937.2 441L960 452L960 541L937.2 541C914.3 541 868.7 541 823 541C777.3 541 731.7 541 686 541C640.3 541 594.7 541 548.8 541C503 541 457 541 411.2 541C365.3 541 319.7 541 274 541C228.3 541 182.7 541 137 541C91.3 541 45.7 541 22.8 541L0 541Z" fill="#8f277e"></path><path d="M0 484L22.8 485.3C45.7 486.7 91.3 489.3 137 487.3C182.7 485.3 228.3 478.7 274 482.2C319.7 485.7 365.3 499.3 411.2 498C457 496.7 503 480.3 548.8 471.8C594.7 463.3 640.3 462.7 686 468.3C731.7 474 777.3 486 823 492.5C868.7 499 914.3 500 937.2 500.5L960 501L960 541L937.2 541C914.3 541 868.7 541 823 541C777.3 541 731.7 541 686 541C640.3 541 594.7 541 548.8 541C503 541 457 541 411.2 541C365.3 541 319.7 541 274 541C228.3 541 182.7 541 137 541C91.3 541 45.7 541 22.8 541L0 541Z" fill="#001122"></path></svg>
