<svg id="visual" viewBox="0 0 1280 600" width="1280" height="600" xmlns="http://www.w3.org/2000/svg" xmlns:xlink="http://www.w3.org/1999/xlink" version="1.1"><path d="M0 31L256 25L512 49L768 43L1024 31L1280 19L1280 0L1024 0L768 0L512 0L256 0L0 0Z" fill="#001122"></path><path d="M0 67L256 43L512 115L768 91L1024 97L1280 43L1280 17L1024 29L768 41L512 47L256 23L0 29Z" fill="#071c38"></path><path d="M0 145L256 97L512 181L768 181L1024 181L1280 97L1280 41L1024 95L768 89L512 113L256 41L0 65Z" fill="#1b244e"></path><path d="M0 319L256 253L512 325L768 247L1024 259L1280 277L1280 95L1024 179L768 179L512 179L256 95L0 143Z" fill="#362a61"></path><path d="M0 361L256 319L512 397L768 277L1024 313L1280 355L1280 275L1024 257L768 245L512 323L256 251L0 317Z" fill="#562c70"></path><path d="M0 409L256 391L512 493L768 379L1024 385L1280 409L1280 353L1024 311L768 275L512 395L256 317L0 359Z" fill="#792b7a"></path><path d="M0 433L256 427L512 511L768 409L1024 421L1280 457L1280 407L1024 383L768 377L512 491L256 389L0 407Z" fill="#9d247e"></path><path d="M0 457L256 475L512 535L768 439L1024 457L1280 505L1280 455L1024 419L768 407L512 509L256 425L0 431Z" fill="#c0177c"></path><path d="M0 565L256 583L512 583L768 589L1024 589L1280 589L1280 503L1024 455L768 437L512 533L256 473L0 455Z" fill="#e10274"></path><path d="M0 601L256 601L512 601L768 601L1024 601L1280 601L1280 587L1024 587L768 587L512 581L256 581L0 563Z" fill="#ff0066"></path></svg>