<?xml version="1.0" standalone="no"?>
<!DOCTYPE svg PUBLIC "-//W3C//DTD SVG 20010904//EN"
 "http://www.w3.org/TR/2001/REC-SVG-20010904/DTD/svg10.dtd">
<svg version="1.0" xmlns="http://www.w3.org/2000/svg"
 width="49.000000pt" height="39.000000pt" viewBox="0 0 49.000000 39.000000"
 preserveAspectRatio="xMidYMid meet">
<metadata>
Created by potrace 1.10, written by Peter Selinger 2001-2011
</metadata>
<g transform="translate(0.000000,39.000000) scale(0.100000,-0.100000)"
fill="#000000" stroke="none">
<path d="M0 195 l0 -195 245 0 245 0 0 195 0 195 -245 0 -245 0 0 -195z m306
88 c24 -21 44 -45 44 -55 0 -22 -48 -98 -62 -98 -5 0 -7 -4 -4 -9 3 -5 -1 -14
-9 -21 -12 -10 -18 -8 -35 11 -10 13 -19 32 -20 42 0 9 -7 17 -15 17 -26 0
-66 46 -58 67 13 33 68 83 91 83 13 0 43 -17 68 -37z"/>
<path d="M205 280 c-3 -11 -12 -20 -20 -20 -7 0 -15 -7 -19 -15 -6 -18 2 -45
15 -45 20 0 25 -2 39 -15 8 -7 32 -13 52 -13 28 0 41 6 53 24 19 29 5 64 -24
64 -10 0 -21 9 -24 20 -4 14 -14 20 -35 20 -22 0 -32 -6 -37 -20z"/>
</g>
</svg>
